<svg xmlns="http://www.w3.org/2000/svg" viewBox="0 0 265.39 395.47"><defs><style>.a{fill:#010101;}</style></defs><path class="a" d="M196.5,354.55a9.52,9.52,0,0,1,.14-1.32c.05-.32.1-.66.13-1,.42-4.66,1.56-7.63,3-9.51-.67-2.09-1.95-3.72-4.28-3.92-5.46-.49-6.54,7.77-6.79,10.63s-1.63,4.4,5.39,5A22.9,22.9,0,0,0,196.5,354.55Z" transform="translate(-118.03 -52.26)"/><path class="a" d="M204,357.4a17.64,17.64,0,0,0,3.6.05,19.34,19.34,0,0,1,2-11.4,1.63,1.63,0,0,1,.11-.17c-.65-2.19-1.93-3.93-4.34-4.14-5.47-.49-6.54,7.77-6.8,10.63S197,356.78,204,357.4Z" transform="translate(-118.03 -52.26)"/><path class="a" d="M211.13,361.93s4.27-1,5.65-3.21c0-.11,0-.22.05-.33.06-.39.13-.81.17-1.25a35.47,35.47,0,0,1,.68-4.55c.13-3.83-.34-8.14-3.07-8.14C210.76,344.45,207.28,355.41,211.13,361.93Z" transform="translate(-118.03 -52.26)"/><path class="a" d="M233.56,358.62c.45-5,.28-13.59-5.93-14.15-6.72-.6-8,9.41-8.34,12.88s-2,5.33,6.65,6.1C234.14,364.19,233.25,362.09,233.56,358.62Z" transform="translate(-118.03 -52.26)"/><path class="a" d="M243.36,342.11c-6.82,0-7.24,12.61-7.24,17s-1.52,6.86,7.24,6.86c8.33,0,7.24-2.5,7.24-6.86C250.6,352.75,249.66,342.11,243.36,342.11Z" transform="translate(-118.03 -52.26)"/><path class="a" d="M308.17,338.78c-2.34.2-3.61,1.83-4.28,3.92,1.4,1.88,2.54,4.85,3,9.51,0,.36.08.7.13,1a11.34,11.34,0,0,1,.14,1.32,22.9,22.9,0,0,0,2.45-.11c7-.63,5.65-2.17,5.39-5S313.63,338.29,308.17,338.78Z" transform="translate(-118.03 -52.26)"/><path class="a" d="M296,357.45a17.55,17.55,0,0,0,3.59-.05c7-.62,5.65-2.16,5.4-5s-1.34-11.12-6.8-10.63c-2.41.21-3.69,1.95-4.34,4.14a1.63,1.63,0,0,1,.11.17A19.34,19.34,0,0,1,296,357.45Z" transform="translate(-118.03 -52.26)"/><path class="a" d="M292.49,361.93c3.85-6.52.37-17.48-3.49-17.48-4.22,0-3,10.36-2.56,13.26S292.49,361.93,292.49,361.93Z" transform="translate(-118.03 -52.26)"/><path class="a" d="M267.55,359.07c0-6.32-.94-17-7.24-17-6.82,0-7.24,12.61-7.24,17s-1.52,6.86,7.24,6.86C268.64,365.93,267.55,363.43,267.55,359.07Z" transform="translate(-118.03 -52.26)"/><path class="a" d="M284.33,357.35c-.31-3.47-1.63-13.48-8.35-12.88-6.2.56-6.37,9.12-5.92,14.15.31,3.47-.58,5.57,7.62,4.83C286.31,362.68,284.64,360.81,284.33,357.35Z" transform="translate(-118.03 -52.26)"/><path class="a" d="M196.79,359.5c-5.77-.5-5.15,1.09-5.37,3.73-.33,3.83-.24,10.33,4.13,10.71,2.57.22,4-1.92,4.84-4.35,0-.9,0-1.85.12-2.89,0-.3,0-.58.06-.85a4.53,4.53,0,0,1,1.09-3.34C201.85,360.86,201.52,359.9,196.79,359.5Z" transform="translate(-118.03 -52.26)"/><path class="a" d="M208.57,362.84c-6.67-.57-5.94,1.16-6.19,4-.36,4.16-.21,11.22,4.84,11.65,2.57.23,4.15-1.48,5.14-3.65a16.59,16.59,0,0,1,1.81-10C213.86,363.85,212.6,363.19,208.57,362.84Z" transform="translate(-118.03 -52.26)"/><path class="a" d="M215.91,365.87c-3.86,6.52-.37,17.48,3.48,17.48,4.22,0,3-10.36,2.56-13.26S215.91,365.87,215.91,365.87Z" transform="translate(-118.03 -52.26)"/><path class="a" d="M229.25,365.79c-6.38.7-5.31,2.73-4.91,6.39.59,5.33,5.74,13.83,7.12,13.68,1.56-.17,4.38-11.24,4-14.9S236,365.05,229.25,365.79Z" transform="translate(-118.03 -52.26)"/><path class="a" d="M243.31,367.93c-6.82,0-5.93,2.26-5.93,6.18,0,5.69,4.45,15.27,5.93,15.27,1.66,0,5.93-11.35,5.93-15.27S250.49,367.93,243.31,367.93Z" transform="translate(-118.03 -52.26)"/><path class="a" d="M257.33,367.93c-7.17,0-5.93,2.26-5.93,6.18s4.27,15.27,5.93,15.27c1.48,0,5.93-9.58,5.93-15.27C263.26,370.19,264.16,367.93,257.33,367.93Z" transform="translate(-118.03 -52.26)"/><path class="a" d="M303.85,359.5c-4.73.4-5.06,1.36-4.87,3a4.54,4.54,0,0,1,1.1,3.34c0,.27,0,.55.05.85.09,1,.12,2,.12,2.89.83,2.43,2.28,4.57,4.84,4.35,4.37-.38,4.47-6.88,4.14-10.71C309,360.59,309.63,359,303.85,359.5Z" transform="translate(-118.03 -52.26)"/><path class="a" d="M292.07,362.84c-4,.35-5.29,1-5.59,2.05a16.58,16.58,0,0,1,1.8,10c1,2.17,2.58,3.88,5.14,3.65,5.05-.43,5.2-7.49,4.84-11.65C298,364,298.75,362.27,292.07,362.84Z" transform="translate(-118.03 -52.26)"/><path class="a" d="M278.69,370.09c-.47,2.9-1.66,13.26,2.57,13.26,3.85,0,7.33-11,3.48-17.48C284.74,365.87,279.17,367.2,278.69,370.09Z" transform="translate(-118.03 -52.26)"/><path class="a" d="M380.44,198.21a97.2,97.2,0,0,0,3-24.58c0-33.26-14.27-58.45-37.44-75.5-21.6-27.83-56.22-45.87-95.26-45.87s-73.66,18-95.26,45.87C132.3,115.18,118,140.37,118,173.63a97.66,97.66,0,0,0,3,24.58h0a4.57,4.57,0,0,0,.28,1q1,3.71,2.32,7.19c.94,2.85,2.22,6.69,4,11.86.89-6.63,2.29-11.83,2.37-15.61.11-5.44,8-25.67,8-25.67-7.78,31.12-7,46-6.89,54.95h0c1.67,12.71-3.08,17.36-3.78,18.24-.89,1.11-4.22,9.11-4.22,10.44s4.67,10.23,7.11,12.45,3.93,2.2,9.7,4.59,5.95,7.42,5.95,7.42a39.73,39.73,0,0,1-.54,6c-.44,1.78.22,2.66,2.45,6.22a6.1,6.1,0,0,0,1.74,1.73c1.49,4.14,3.65,12.29,5.37,27.49,3.4,30.24-7.86,18.26,2.81,46.69,11.64,31,19,40.31,26.08,41.75s34.66,27.56,37.77,29.78,28.74,3,29.21,3h0c.47,0,26.12-.78,29.21-3S310.6,416.41,317.71,415s14.44-10.72,26.08-41.75c10.66-28.43-.6-16.45,2.81-46.69,1.71-15.18,3.87-23.32,5.36-27.46a6.49,6.49,0,0,0,1.78-1.76c2.22-3.56,2.88-4.44,2.44-6.22a41.15,41.15,0,0,1-.54-6s.17-5,5.95-7.42,7.26-2.37,9.7-4.59,7.11-11.11,7.11-12.45-3.33-9.33-4.22-10.44a14.89,14.89,0,0,1-3.31-6.35h0a24.07,24.07,0,0,1-.77-4.83c-1.74-11.05-5.69-35.9-7.49-39.35-2.16-4.17-19.77-27.26-19.77-27.26s20.12,21.51,21.61,25.27c.8,2,4.73,13.78,8.21,24.31.21-.66.42-1.34.66-2,2-6,3.49-10.39,4.53-13.54q1.32-3.48,2.32-7.19a4.57,4.57,0,0,0,.28-1Zm-86.2-31.87c3.78-.45,10.34,1.33,21.67,5.33s26.67,10.63,26.67,10.63-39.12-13.44-46.37-13.74S274.43,173.3,262.87,186C273.39,169.72,290.46,166.78,294.24,166.34Zm-43.51,88.53c2.29.08,2.77,6.18,6.26,9.86s8.81,23,9.56,27,4.68,7.27,4.49,11.53-12.74,8.78-14.42,8.78-5.89-32.86-5.89-32.86-4.2,32.86-5.89,32.86-14.24-4.51-14.42-8.78,3.74-7.52,4.49-11.53,6.06-23.33,9.56-27S248.44,255,250.73,254.87ZM296.26,306a25.7,25.7,0,0,0-3.87-8.73,26,26,0,0,1,4.49,8.57,22.39,22.39,0,0,1,.89,4.82l.38,4.81c.12,3.2.35,6.39.75,9.58.19,1.59.42,3.18.7,4.76s.55,3.17.94,4.73a65.45,65.45,0,0,1-2.47-9.36,84.3,84.3,0,0,1-1.27-9.63c-.11-1.61,0-3.27,0-4.85A22,22,0,0,0,296.26,306Zm-12.68-34.79c-4.45-5.11-16.26-21.23-16.26-21.23s14.22,16.78,20.74,21.82,35.85,7,49.33-.74c0,0-8.81,7.48-27.81,6.81S288,276.34,283.58,271.23Zm-2.64,55.64c.2,1.68.53,3.34.89,5a47.11,47.11,0,0,0,1.31,4.93,48.29,48.29,0,0,1-3-9.8,35.07,35.07,0,0,1-.59-10.34,17.55,17.55,0,0,1,1.38-5.05,20.76,20.76,0,0,0,1.48-4.79,18.14,18.14,0,0,0-.91-10,18.5,18.5,0,0,1,1.58,10.06,22,22,0,0,1-1.19,5.06,18.06,18.06,0,0,0-.6,2.41c-.08.4-.14.81-.23,1.21s-.11.83-.18,1.23A35.56,35.56,0,0,0,280.94,326.87Zm-29.22.43a61,61,0,0,1-.59,8.52,61,61,0,0,1-.58-8.52c0-1.42,0-2.84.1-4.26a36.29,36.29,0,0,1,.48-4.26,34.31,34.31,0,0,1,.49,4.26C251.7,324.46,251.74,325.88,251.72,327.3Zm-30.23-10.47c-.06-.4-.09-.82-.17-1.23s-.16-.81-.23-1.21a18.06,18.06,0,0,0-.6-2.41,22,22,0,0,1-1.19-5.06,18.5,18.5,0,0,1,1.57-10.06,18.14,18.14,0,0,0-.9,10,20.73,20.73,0,0,0,1.47,4.79,17.23,17.23,0,0,1,1.38,5.05,35.07,35.07,0,0,1-.58,10.34,48.29,48.29,0,0,1-3,9.8,47.11,47.11,0,0,0,1.31-4.93,50.31,50.31,0,0,0,.88-5A35.56,35.56,0,0,0,221.49,316.83Zm-3.61-45.6c-4.44,5.11-7,6-26,6.66s-27.81-6.81-27.81-6.81c13.48,7.7,42.81,5.78,49.33.74S234.14,250,234.14,250,222.33,266.12,217.88,271.23Zm-12.3,44.34a89,89,0,0,1-1.27,9.63,65.45,65.45,0,0,1-2.47,9.36c.39-1.56.68-3.15.94-4.73s.51-3.17.7-4.76c.4-3.19.63-6.38.75-9.58l.37-4.81a23,23,0,0,1,.9-4.82,26,26,0,0,1,4.48-8.57,25.68,25.68,0,0,0-3.86,8.73,20.82,20.82,0,0,0-.56,4.7C205.53,312.3,205.69,314,205.58,315.57Zm-20-143.9c11.33-4,17.89-5.78,21.67-5.33s20.85,3.38,31.37,19.69c-11.56-12.73-26.08-17.77-33.33-17.47s-46.37,13.74-46.37,13.74S174.22,175.67,185.55,171.67Zm-42.12,15.64s17.48-42.37,17.48-43.45-.59-43.45-.59-43.45,4.54,43.56,3.75,43.85S143.43,187.31,143.43,187.31Zm44.86,10.48c34.86-1,47.74,5.29,47.74,25.53,0,29.09-20.81,45.52-46.48,45.52s-38.25-16.4-38.25-36.63S162.63,198.55,188.29,197.79Zm28.15,209.78a12.43,12.43,0,0,0-1.48-1.76,36.16,36.16,0,0,0-3.52-3c-2.48-1.86-5.05-3.63-7.47-5.63a35.24,35.24,0,0,1-6.58-6.78,22.13,22.13,0,0,1-2.28-4.16,17.31,17.31,0,0,1-1.14-4.57,22.57,22.57,0,0,0,4.16,8.18,44.59,44.59,0,0,0,6.52,6.51c2.37,2,4.88,3.82,7.26,5.86a28.36,28.36,0,0,1,3.4,3.27,8.39,8.39,0,0,1,2.09,4.18A7.55,7.55,0,0,0,216.44,407.57Zm-.08-19.83a15.68,15.68,0,0,0,4.33,5.22c1.75,1.46,3.66,2.74,5.57,4.06a57.52,57.52,0,0,1,5.62,4.21,16.22,16.22,0,0,1,2.42,2.61,7.91,7.91,0,0,1,1.42,3.24c-.9-2.18-2.7-3.67-4.51-5s-3.8-2.58-5.73-3.88a38.42,38.42,0,0,1-5.55-4.36A11.73,11.73,0,0,1,216.36,387.74Zm48.8,29.51a82.27,82.27,0,0,0-15.21-2,76.87,76.87,0,0,0-15.29,1c-1.26.21-2.53.42-3.78.72l-1.88.41-1.87.49c-2.5.59-4.95,1.4-7.43,2.17a77.49,77.49,0,0,1,7.23-2.85c1.23-.42,2.48-.79,3.73-1.12s2.52-.64,3.79-.92A64.4,64.4,0,0,1,250,413.82a68.58,68.58,0,0,1,15.43,2.3A79.41,79.41,0,0,1,280,421.6,128,128,0,0,0,265.16,417.25ZM276,398.16c-1.93,1.3-3.89,2.53-5.73,3.88s-3.61,2.86-4.51,5a7.91,7.91,0,0,1,1.42-3.24,15.84,15.84,0,0,1,2.43-2.61A56.22,56.22,0,0,1,275.2,397c1.91-1.32,3.82-2.6,5.57-4.06a15.68,15.68,0,0,0,4.33-5.22,11.73,11.73,0,0,1-3.57,6.06A37.89,37.89,0,0,1,276,398.16Zm30.37-11.92a22.13,22.13,0,0,1-2.28,4.16,35.19,35.19,0,0,1-6.57,6.78c-2.43,2-5,3.77-7.47,5.63a33.94,33.94,0,0,0-3.52,3,11.87,11.87,0,0,0-1.49,1.76,7.55,7.55,0,0,0-1,2.1,8.39,8.39,0,0,1,2.09-4.18,28.36,28.36,0,0,1,3.4-3.27c2.38-2,4.89-3.88,7.27-5.86a45,45,0,0,0,6.51-6.51,22.57,22.57,0,0,0,4.16-8.18A17.31,17.31,0,0,1,306.35,386.24Zm36-82.49c-.24,0-5.88-.67-9.91-1.15-4.07,13.85-1.21,12.19-.47,19.27.88,8.55,0,19.7-6.67,33.9,0,0,10.25-15.62,10.46-39.84,0,0,1,20.41-3.56,32.63-3.36,9-9.55,12-12.57,12.95a66.07,66.07,0,0,1-8.69,6.13c-.43,6-3.13,7.88-5.62,8.1a5.64,5.64,0,0,1-5.15-2.74l-.13.05c-.84,5.41-3.72,7.19-6.37,7.41a6.55,6.55,0,0,1-5.84-2.85,16.08,16.08,0,0,1-1.6,4.14c-1.32,2.32-3.08,3.6-4.94,3.6a4.14,4.14,0,0,1-3.24-1.51,8.51,8.51,0,0,1-1.62-4.2l-.6.09c-2,4.23-4.72,8.23-6.83,8-1.75-.19-3.15-3.19-4.12-6.64l-.93.08c-1.54,5-4.18,10.21-6.59,10.21s-4.75-5-6.26-9.7h-1.5c-1.5,4.71-3.84,9.71-6.26,9.71s-5.07-5.26-6.61-10.29l-.89-.07c-1,3.48-2.38,6.51-4.14,6.71-2.13.23-4.93-3.86-6.89-8.14l-.52-.08a8.7,8.7,0,0,1-1.63,4.33,4.16,4.16,0,0,1-3.24,1.51c-1.87,0-3.62-1.28-4.95-3.6a16.45,16.45,0,0,1-1.59-4.14,6.58,6.58,0,0,1-5.85,2.85c-2.68-.23-5.59-2-6.4-7.62a5.7,5.7,0,0,1-5.25,2.9c-2.55-.22-5.32-2.21-5.64-8.59a63.18,63.18,0,0,1-8.89-6.52h0c-18.79-10.77-15.77-42.89-15.77-42.89.38,19.74,8.05,32.73,10.2,36-5.83-13.23-6.6-23.73-5.76-31.87.76-7.3,3.78-5.31-.86-20.59-3.76.74-9,1.75-9.47,1.8-.78.07-5.48-1.93-5.48-1.93l5.29,1.12,12.3-3,.45-.14a3.58,3.58,0,0,1,.74-.15h0c4.06-.46,14.37,3,14.37,3s3.55,10.81,3.55,12.74,1.63,5.48-3.26,11.81,0,15.05,0,15.05c.42.18.85.35,1.29.52,2-4.63,5.19-5.46,7.26-5.27a6.42,6.42,0,0,1,5.5,4.34,6.28,6.28,0,0,1,4.48-1.38,6.44,6.44,0,0,1,5.49,4.29,4.87,4.87,0,0,1,3.46-1.63,4.11,4.11,0,0,1,3.24,1.52,7.86,7.86,0,0,1,1.51,3.67c2.46-4.88,6.14-5.74,8.55-5.53,2.71.25,5.59,1.79,7.08,6.06,1.94-7.07,5.78-8.39,8.37-8.39,3.15,0,6.74,1.76,8.49,8.75,1.9-7.38,5.83-8.75,8.46-8.75,3.08,0,6.56,1.67,8.36,8.22,1.5-4.15,4.36-5.65,7-5.89,2.41-.21,6.09.65,8.54,5.52a8,8,0,0,1,1.51-3.66,4.14,4.14,0,0,1,3.24-1.52,4.92,4.92,0,0,1,3.47,1.62,6.43,6.43,0,0,1,5.48-4.28,6.3,6.3,0,0,1,4.48,1.37,6.44,6.44,0,0,1,5.51-4.33c1.88-.17,4.71.5,6.71,4.12,1-2.11,3.78-9.1-.32-14.42-4.89-6.33-3.26-9.89-3.26-11.81S314.62,302,314.62,302s11.78-4,15.12-2.89l.37.12,12.37,3.06,7.17-.89S342.69,303.75,342.32,303.75Zm7.84-71.54c0,20.23-12.58,36.63-38.25,36.63s-46.48-16.43-46.48-45.52c0-20.24,12.88-26.56,47.74-25.53C338.83,198.55,350.16,212,350.16,232.21ZM363,180.71s-16.59-34.37-17.18-36.83-.89-36.74-.89-36.74l2.52,36.24L364,179.52l3.11,7.79Z" transform="translate(-118.03 -52.26)"/><path class="a" d="M271.39,365.79c-6.72-.74-5.78,1.5-6.19,5.17s2.42,14.73,4,14.9c1.38.15,6.54-8.35,7.12-13.68C276.71,368.52,277.78,366.49,271.39,365.79Z" transform="translate(-118.03 -52.26)"/></svg>